<?xml version="1.0" encoding="iso-8859-1"?>
<!-- Generator: Adobe Illustrator 18.0.0, SVG Export Plug-In . SVG Version: 6.00 Build 0)  -->
<!DOCTYPE svg PUBLIC "-//W3C//DTD SVG 1.1//EN" "http://www.w3.org/Graphics/SVG/1.1/DTD/svg11.dtd">
<svg version="1.1" id="Capa_1" xmlns="http://www.w3.org/2000/svg" xmlns:xlink="http://www.w3.org/1999/xlink" x="0px" y="0px"
	 viewBox="0 0 406 406" style="enable-background:new 0 0 406 406;" xml:space="preserve">
<path d="M366.716,155h-13.713V82.424C353.003,36.975,316.028,0,270.58,0H136.427C90.979,0,54.003,36.975,54.003,82.424V155H39.284
	c-16.148,0-29.286,13.138-29.286,29.286V218c0,3.866,3.134,7,7,7c5.509,0,9.684-1.67,13.005-3.942V322.75
	c0,45.904,37.341,83.25,83.24,83.25h179.51c45.904,0,83.25-37.346,83.25-83.25V221.061c3.319,2.271,7.493,3.939,12.998,3.939
	c3.866,0,7-3.134,7-7v-33.714C396.001,168.138,382.864,155,366.716,155z M68.003,82.424C68.003,44.695,98.698,14,136.427,14H270.58
	c37.729,0,68.424,30.695,68.424,68.424V155h-20V82.424C319.003,55.723,297.281,34,270.58,34H136.427
	c-26.701,0-48.424,21.723-48.424,48.424V155h-20V82.424z M305.003,155h-203V82.424c0-18.981,15.442-34.424,34.424-34.424H270.58
	c18.981,0,34.424,15.442,34.424,34.424V155z M362.003,236h-318v-28.145c1.161-0.567,2.427-0.855,4-0.855
	c4.349,0,6.378,2.132,10.199,6.568C62.358,218.393,68.049,225,79.009,225s16.65-6.607,20.805-11.432
	c3.82-4.436,5.849-6.568,10.196-6.568s6.377,2.132,10.197,6.568c4.155,4.825,9.845,11.432,20.805,11.432s16.65-6.607,20.805-11.432
	c3.82-4.436,5.849-6.568,10.196-6.568c4.347,0,6.376,2.132,10.196,6.567c4.154,4.825,9.845,11.433,20.805,11.433
	c10.959,0,16.648-6.608,20.803-11.433c3.818-4.436,5.848-6.567,10.193-6.567s6.375,2.132,10.193,6.567
	c4.154,4.825,9.844,11.433,20.803,11.433c10.96,0,16.649-6.607,20.805-11.432c3.819-4.436,5.848-6.568,10.195-6.568
	s6.376,2.132,10.195,6.568c4.155,4.825,9.845,11.432,20.805,11.432s16.649-6.608,20.804-11.433
	c3.819-4.436,5.848-6.567,10.194-6.567c1.573,0,2.838,0.289,3.999,0.855V236z M292.753,392h-179.51
	c-38.179,0-69.24-31.065-69.24-69.25V250h318v72.75C362.003,360.935,330.938,392,292.753,392z M382.001,207.933
	c-0.973-0.943-1.995-2.108-3.193-3.5c-4.154-4.825-9.844-11.433-20.804-11.433s-16.649,6.608-20.804,11.433
	c-3.819,4.436-5.848,6.567-10.194,6.567c-4.348,0-6.376-2.132-10.195-6.568c-4.155-4.825-9.845-11.432-20.805-11.432
	s-16.649,6.607-20.805,11.432c-3.819,4.436-5.848,6.568-10.195,6.568c-4.346,0-6.375-2.132-10.193-6.567
	C250.659,199.608,244.969,193,234.01,193s-16.648,6.608-20.803,11.433c-3.818,4.436-5.848,6.567-10.193,6.567
	c-4.348,0-6.376-2.132-10.196-6.568c-4.154-4.825-9.844-11.432-20.804-11.432s-16.65,6.607-20.805,11.432
	c-3.82,4.436-5.849,6.568-10.196,6.568s-6.377-2.132-10.197-6.568c-4.155-4.825-9.845-11.432-20.805-11.432
	s-16.65,6.607-20.805,11.432c-3.82,4.436-5.849,6.568-10.197,6.568c-4.349,0-6.378-2.132-10.198-6.568
	C64.656,199.607,58.965,193,48.004,193c-10.96,0-16.651,6.607-20.807,11.432c-1.2,1.394-2.224,2.561-3.199,3.505v-23.651
	c0-8.429,6.857-15.286,15.286-15.286h327.432c8.429,0,15.285,6.857,15.285,15.286V207.933z"/>
<g>
</g>
<g>
</g>
<g>
</g>
<g>
</g>
<g>
</g>
<g>
</g>
<g>
</g>
<g>
</g>
<g>
</g>
<g>
</g>
<g>
</g>
<g>
</g>
<g>
</g>
<g>
</g>
<g>
</g>
</svg>
