<svg id="Capa_1" enable-background="new 0 0 512 512" height="512" viewBox="0 0 512 512" width="512" xmlns="http://www.w3.org/2000/svg" xmlns:xlink="http://www.w3.org/1999/xlink"><linearGradient id="SVGID_1_" gradientUnits="userSpaceOnUse" x1="256" x2="256" y1="512" y2="0"><stop offset="0" stop-color="#addcff"/><stop offset=".5028" stop-color="#eaf6ff"/><stop offset="1" stop-color="#eaf6ff"/></linearGradient><linearGradient id="SVGID_2_" gradientUnits="userSpaceOnUse" x1="256" x2="256" y1="131.647" y2="380.353"><stop offset="0" stop-color="#5558ff"/><stop offset="1" stop-color="#00c0ff"/></linearGradient><g><g><circle cx="256" cy="256" fill="url(#SVGID_1_)" r="256"/></g><g><g><path d="m184.941 344.823c-9.812 0-17.765 7.953-17.765 17.765s7.953 17.765 17.765 17.765 17.765-7.953 17.765-17.765c0-9.811-7.953-17.765-17.765-17.765zm159.883 0c-9.812 0-17.765 7.953-17.765 17.765s7.953 17.765 17.765 17.765 17.765-7.953 17.765-17.765c-.001-9.811-7.954-17.765-17.765-17.765zm-174.811-106.588h47.621l5.327-26.647h-58.275zm165.928 44.412v-79.941h-35.529v97.706c0 4.905-3.977 8.882-8.882 8.882h-186.53v44.412c0 4.91 3.973 8.882 8.882 8.882h35.529c0-19.595 15.934-35.529 35.529-35.529s35.529 15.934 35.529 35.529h88.824c0-19.595 15.934-35.529 35.529-35.529s35.529 15.934 35.529 35.529h17.765c4.91 0 8.882-3.973 8.882-8.882v-26.647h-8.882c-4.91 0-8.882-3.973-8.882-8.882s3.973-8.882 8.882-8.882h8.884v-17.765h-62.176c-4.91-.001-8.883-3.973-8.883-8.883zm17.765-79.043v70.161h53.294v-8.882c0-31.24-23.242-56.923-53.294-61.279zm-71.059-63.075c0-4.905-3.977-8.882-8.882-8.882h-159.883c-4.905 0-8.882 3.977-8.882 8.882v151h177.647zm-35.529 71.059h-6.043l-7.454 37.272c-.831 4.152-4.475 7.14-8.709 7.14h-62.176c-4.234 0-7.878-2.988-8.709-7.14l-7.454-37.272h-6.043c-4.91 0-8.882-3.973-8.882-8.882s3.973-8.882 8.882-8.882h19.716l7.2-28.798c1.18-4.762 5.977-7.685 10.765-6.462 4.762 1.188 7.659 6.011 6.462 10.765l-6.124 24.496h30.55l-6.124-24.496c-1.197-4.753 1.7-9.576 6.462-10.765 4.745-1.214 9.576 1.7 10.765 6.462l7.2 28.798h19.716c4.91 0 8.882 3.973 8.882 8.882s-3.973 8.882-8.882 8.882z" fill="url(#SVGID_2_)"/></g></g></g></svg>