<?xml version="1.0" encoding="iso-8859-1"?>
<!-- Generator: Adobe Illustrator 19.0.0, SVG Export Plug-In . SVG Version: 6.00 Build 0)  -->
<svg version="1.1" id="Capa_1" xmlns="http://www.w3.org/2000/svg" xmlns:xlink="http://www.w3.org/1999/xlink" x="0px" y="0px"
	 viewBox="0 0 497.894 497.894" style="enable-background:new 0 0 497.894 497.894;" xml:space="preserve">
<polygon style="fill:#D4E1F4;" points="318.955,15.673 318.955,168.751 186.776,168.751 155.429,216.816 118.335,168.751 
	70.269,168.751 70.269,15.673 "/>
<g>
	<path style="fill:#4DCFE0;" d="M429.192,306.155v1.045c0,23.51-18.808,42.318-41.796,42.318h-1.045
		c-22.988,0-41.796-18.808-41.796-41.796v-1.567c0-22.988,18.808-41.796,41.796-41.796h1.045
		C410.384,264.359,429.192,283.167,429.192,306.155z"/>
	<path style="fill:#4DCFE0;" d="M153.339,306.155v1.567c0,22.988-18.808,41.796-41.796,41.796h-1.045
		c-22.988,0-41.796-18.808-41.796-42.318v-1.045c0-22.988,18.808-41.796,41.796-41.796h1.045
		C134.531,264.359,153.339,283.167,153.339,306.155z"/>
	<path style="fill:#4DCFE0;" d="M360.229,440.424v41.796H137.665v-41.796c0-33.959,26.122-61.649,59.559-64.261
		c13.584,13.061,31.347,20.898,51.722,20.898s38.139-7.837,51.722-20.898C334.106,378.253,360.229,406.465,360.229,440.424z"/>
	<path style="fill:#4DCFE0;" d="M301.714,284.735v1.567c0,28.735-22.988,52.245-52.245,52.245h-1.567
		c-28.735,0-52.245-23.51-52.245-52.245v-1.567c0-28.735,23.51-52.245,52.245-52.245h1.567
		C278.204,232.49,301.714,256,301.714,284.735z"/>
</g>
<g>
	<path style="fill:#3A2C51;" d="M249.469,354.22h-1.567c-37.616,0-67.918-30.302-67.918-67.918v-1.567
		c0-37.616,30.302-67.918,67.918-67.918h1.567c37.616,0,67.918,30.302,67.918,67.918v1.567
		C317.388,323.918,287.086,354.22,249.469,354.22z M247.902,248.163c-20.376,0-36.571,16.196-36.571,36.571v1.567
		c0,20.376,16.196,36.571,36.571,36.571h1.567c20.376,0,36.571-16.196,36.571-36.571v-1.567c0-20.376-16.196-36.571-36.571-36.571
		H247.902z"/>
	<path style="fill:#3A2C51;" d="M360.229,497.894H137.665c-8.882,0-15.673-6.792-15.673-15.673v-41.796
		c0-41.796,32.392-76.8,74.188-79.935c4.702-0.522,8.882,1.045,12.016,4.18c11.494,10.971,25.6,16.718,40.751,16.718
		c15.673,0,29.78-5.747,40.751-16.718c3.135-3.135,7.314-4.702,12.016-4.18c41.796,2.612,74.188,37.616,74.188,79.935v41.796
		C375.902,491.102,369.11,497.894,360.229,497.894z M153.339,466.547h191.216v-26.122c0-23.51-16.718-43.363-38.661-48.065
		c-16.196,13.061-35.527,20.376-56.947,20.376c-20.898,0-40.751-6.792-56.947-19.853c-22.465,4.702-38.661,24.033-38.661,47.543
		C153.339,440.424,153.339,466.547,153.339,466.547z"/>
	<path style="fill:#3A2C51;" d="M387.396,365.192h-1.045c-31.869,0-57.469-25.6-57.469-57.469v-1.567
		c0-31.869,25.6-57.469,57.469-57.469h1.045c31.869,0,57.469,25.6,57.469,57.469v1.045
		C444.865,339.069,419.265,365.192,387.396,365.192z M386.351,280.033c-14.629,0-26.122,11.494-26.122,26.122v1.567
		c0,14.629,11.494,26.122,26.122,26.122h1.045c14.629,0,26.122-12.016,26.122-26.645v-1.045c0-14.629-11.494-26.122-26.122-26.122
		H386.351z"/>
	<path style="fill:#3A2C51;" d="M471.51,476.473h-84.637v-31.347h68.963v-16.196c0-14.629-11.494-26.122-25.6-26.645
		c-12.539,10.449-26.645,15.673-43.363,15.673v-31.347c9.927,0,18.286-3.657,26.122-10.971c3.135-3.135,6.792-4.702,10.971-4.702
		h5.224c31.869,0,57.992,26.122,57.992,57.992V460.8C487.184,469.682,480.392,476.473,471.51,476.473z"/>
	<path style="fill:#3A2C51;" d="M111.543,365.192h-1.045c-31.869,0-57.469-26.122-57.469-57.992v-1.045
		c0-31.869,25.6-57.469,57.469-57.469h1.045c31.869,0,57.469,25.6,57.469,57.469v1.567
		C169.012,339.592,143.412,365.192,111.543,365.192z M110.498,280.033c-14.629,0-26.122,11.494-26.122,26.122v1.045
		c0,14.629,11.494,26.645,26.122,26.645h1.045c14.629,0,26.122-11.494,26.122-26.122v-1.567c0-14.629-11.494-26.122-26.122-26.122
		H110.498z"/>
	<path style="fill:#3A2C51;" d="M111.543,476.473H26.384c-8.882,0-15.673-6.792-15.673-15.673v-31.869
		c0-31.869,26.122-57.992,57.992-57.992h5.224c4.18,0,8.359,1.567,10.971,4.702c7.314,7.314,15.673,10.971,26.122,10.971v31.347
		c-16.196,0-30.824-5.224-43.363-15.673c-14.629,0.522-25.6,12.016-25.6,26.645v16.196h69.486V476.473z"/>
	<path style="fill:#3A2C51;" d="M155.429,232.49c-4.702,0-9.404-2.09-12.539-6.269l-32.392-41.796H70.269
		c-8.882,0-15.673-6.792-15.673-15.673V15.673C54.596,6.792,61.388,0,70.269,0h248.686c8.882,0,15.673,6.792,15.673,15.673v153.078
		c0,8.882-6.792,15.673-15.673,15.673h-123.82l-26.645,40.751c-2.612,4.18-7.314,6.792-12.539,7.314
		C155.951,232.49,155.429,232.49,155.429,232.49z M85.943,153.078h32.392c4.702,0,9.404,2.09,12.539,6.269l23.51,30.824
		l19.331-29.78c3.135-4.18,7.837-7.314,13.061-7.314h116.506V31.347H85.943V153.078z"/>
	<path style="fill:#3A2C51;" d="M234.841,84.114H128.784c-8.882,0-15.673-6.792-15.673-15.673s6.792-15.673,15.673-15.673h106.057
		c8.882,0,15.673,6.792,15.673,15.673S243.722,84.114,234.841,84.114z"/>
	<path style="fill:#3A2C51;" d="M187.298,131.657h-58.514c-8.882,0-15.673-6.792-15.673-15.673s6.792-15.673,15.673-15.673h58.514
		c8.882,0,15.673,6.792,15.673,15.673S196.18,131.657,187.298,131.657z"/>
</g>
<g>
</g>
<g>
</g>
<g>
</g>
<g>
</g>
<g>
</g>
<g>
</g>
<g>
</g>
<g>
</g>
<g>
</g>
<g>
</g>
<g>
</g>
<g>
</g>
<g>
</g>
<g>
</g>
<g>
</g>
</svg>
